Coordinates
version=1
nRows=32
nColumns=38
inDegrees=no

Units are S.I. units (second, meters, Newtons, ...)
If the header above contains a line with 'inDegrees', this indicates whether rotational values are in degrees (yes) or radians (no).

endheader
time	pelvis_tilt	pelvis_list	pelvis_rotation	pelvis_tx	pelvis_ty	pelvis_tz	hip_flexion_r	hip_adduction_r	hip_rotation_r	knee_angle_r	ankle_angle_r	subtalar_angle_r	mtp_angle_r	hip_flexion_l	hip_adduction_l	hip_rotation_l	knee_angle_l	ankle_angle_l	subtalar_angle_l	mtp_angle_l	lumbar_extension	lumbar_bending	lumbar_rotation	arm_flex_r	arm_add_r	arm_rot_r	elbow_flex_r	pro_sup_r	wrist_flex_r	wrist_dev_r	arm_flex_l	arm_add_l	arm_rot_l	elbow_flex_l	pro_sup_l	wrist_flex_l	wrist_dev_l
1.17	-0.112767	0.0473817	-0.11306	1.22635	0.945564	-0.314381	0.681368	0.0774198	0.119609	-1.88643	0.171674	-0.0297321	-0.00478765	0.388867	0.177947	0.0773805	-0.93855	0.492622	-0.0337426	-0.011012	-0.209282	-0.0591397	-0.0791642	-0.591613	-0.141946	-0.0318533	1.79574	1.64907	-0.00666416	-0.000370953	-0.189836	-0.198077	-0.144724	2.05241	1.70825	0.0156172	0.0108138
1.18	-0.117036	0.0360325	-0.115152	1.22687	0.951666	-0.314622	0.717933	0.083613	0.10315	-1.84267	0.186811	-0.0297321	-0.00478765	0.334368	0.170208	0.0892112	-0.892693	0.473081	-0.0337426	-0.011012	-0.201124	-0.0411919	-0.0900043	-0.61946	-0.14511	-0.0453708	1.83877	1.65594	-0.00666416	-0.000370953	-0.179955	-0.186974	-0.136855	2.08579	1.69857	0.0156172	0.0108138
1.19	-0.121021	0.0243941	-0.116046	1.22778	0.958537	-0.314871	0.748616	0.0896623	0.0850567	-1.78885	0.199794	-0.0297321	-0.00478765	0.278309	0.161188	0.0993374	-0.842228	0.44147	-0.0337426	-0.011012	-0.193022	-0.0226695	-0.0993382	-0.647141	-0.147379	-0.0593557	1.88183	1.66014	-0.00666416	-0.000370953	-0.170298	-0.17903	-0.122903	2.11957	1.6876	0.0156172	0.0108138
1.2	-0.124869	0.0125494	-0.115977	1.22899	0.965946	-0.315125	0.773403	0.0962851	0.0667145	-1.7256	0.210726	-0.0297321	-0.00478765	0.222078	0.15076	0.106547	-0.788927	0.398055	-0.0337426	-0.011012	-0.184982	-0.00364258	-0.107133	-0.674214	-0.148805	-0.0733444	1.92404	1.66077	-0.00666416	-0.000370953	-0.16086	-0.174365	-0.103388	2.15281	1.67698	0.0156172	0.0108138
1.21	-0.128904	0.000643026	-0.115186	1.23042	0.973647	-0.315386	0.792575	0.103926	0.0493279	-1.65344	0.219818	-0.0297321	-0.00478765	0.16724	0.138985	0.109863	-0.734672	0.343709	-0.0337426	-0.011012	-0.176781	0.015777	-0.113472	-0.700323	-0.149604	-0.0868413	1.96487	1.65757	-0.00666416	-0.000370953	-0.151869	-0.172857	-0.0792271	2.18487	1.66795	0.0156172	0.0108138
1.22	-0.133519	-0.0110844	-0.113892	1.23198	0.981383	-0.315661	0.80656	0.112647	0.0338206	-1.57273	0.227383	-0.0297321	-0.00478765	0.115377	0.126163	0.108715	-0.681391	0.279949	-0.0337426	-0.011012	-0.168079	0.0353744	-0.118527	-0.725177	-0.150085	-0.099382	2.00401	1.65088	-0.00666416	-0.000370953	-0.143681	-0.174224	-0.0515603	2.21539	1.66127	0.0156172	0.0108138
1.23	-0.139065	-0.0222858	-0.112274	1.23361	0.988918	-0.315962	0.815775	0.122124	0.0208236	-1.48369	0.233774	-0.0297321	-0.00478765	0.0679019	0.112842	0.103069	-0.630967	0.208928	-0.0337426	-0.011012	-0.158536	0.0547934	-0.122516	-0.748537	-0.150568	-0.110587	2.0413	1.64166	-0.00666416	-0.000370953	-0.136691	-0.178105	-0.0215941	2.24418	1.65717	0.0156172	0.0108138
1.24	-0.145749	-0.0325303	-0.110467	1.23521	0.996049	-0.316302	0.820469	0.131729	0.0107361	-1.38643	0.239296	-0.0297321	-0.00478765	0.0258871	0.0997833	0.093503	-0.585136	0.133363	-0.0337426	-0.011012	-0.147949	0.0735335	-0.125648	-0.770199	-0.151323	-0.120198	2.07664	1.63126	-0.00666416	-0.000370953	-0.131262	-0.184104	0.00951739	2.27115	1.65547	0.0156172	0.0108138
1.25	-0.15356	-0.0413542	-0.108575	1.23675	1.00261	-0.316697	0.820654	0.140687	0.0038172	-1.28105	0.244109	-0.0297321	-0.00478765	-0.0100424	0.0878805	0.0812094	-0.545423	0.0564041	-0.0337426	-0.011012	-0.136315	0.0909929	-0.128061	-0.78998	-0.152521	-0.128103	2.10991	1.62132	-0.00666416	-0.000370953	-0.127689	-0.191824	0.0407493	2.29618	1.65571	0.0156172	0.0108138
1.26	-0.162244	-0.0483249	-0.106671	1.2382	1.00848	-0.317167	0.816107	0.148244	0.000257162	-1.16783	0.248159	-0.0297321	-0.00478765	-0.0397286	0.0780445	0.0679214	-0.51312	-0.0185567	-0.0337426	-0.011012	-0.123865	0.106559	-0.129794	-0.807709	-0.154233	-0.134338	2.14101	1.61348	-0.00666416	-0.000370953	-0.126179	-0.200874	0.0712391	2.31915	1.65724	0.0156172	0.0108138
1.27	-0.171359	-0.0530969	-0.104805	1.23956	1.01355	-0.317728	0.806442	0.153815	0.000190483	-1.04739	0.251168	-0.0297321	-0.00478765	-0.0634237	0.0710779	0.0557444	-0.489333	-0.0881134	-0.0337426	-0.011012	-0.111065	0.119723	-0.130776	-0.823211	-0.15644	-0.139062	2.16977	1.60908	-0.00666416	-0.000370953	-0.126844	-0.210876	0.100293	2.3398	1.65935	0.0156172	0.0108138
1.28	-0.180354	-0.0555549	-0.102982	1.24084	1.01775	-0.318396	0.79126	0.15705	0.00365419	-0.92094	0.252695	-0.0297321	-0.00478765	-0.0816546	0.0675845	0.0468889	-0.475072	-0.149108	-0.0337426	-0.011012	-0.0985688	0.130141	-0.130874	-0.836303	-0.159077	-0.142528	2.19604	1.609	-0.00666416	-0.000370953	-0.12971	-0.221465	0.127361	2.3578	1.66136	0.0156172	0.0108138
1.29	-0.188601	-0.0558293	-0.101155	1.24207	1.02102	-0.319174	0.770352	0.157856	0.0104996	-0.790521	0.252235	-0.0297321	-0.00478765	-0.095044	0.0678743	0.0433124	-0.471318	-0.198923	-0.0337426	-0.011012	-0.087133	0.137708	-0.129952	-0.846789	-0.162085	-0.145021	2.21967	1.61342	-0.00666416	-0.000370953	-0.134744	-0.232275	0.151992	2.37276	1.66266	0.0156172	0.0108138
1.3	-0.195481	-0.0542621	-0.099217	1.24327	1.02331	-0.320055	0.743929	0.156376	0.0203118	-0.65921	0.249358	-0.0297321	-0.00478765	-0.104147	0.0718956	0.0462977	-0.479035	-0.23579	-0.0337426	-0.011012	-0.0775206	0.142572	-0.127934	-0.854463	-0.165464	-0.146817	2.24053	1.62185	-0.00666416	-0.000370953	-0.141882	-0.242925	0.17378	2.38425	1.66285	0.0156172	0.0108138
1.31	-0.200454	-0.0513568	-0.0970181	1.24445	1.02462	-0.321014	0.712821	0.152953	0.0323696	-0.531269	0.243848	-0.0297321	-0.00478765	-0.109356	0.0791971	0.0560548	-0.49907	-0.259057	-0.0337426	-0.011012	-0.0704056	0.145109	-0.124829	-0.859136	-0.169301	-0.148146	2.25856	1.63324	-0.00666416	-0.000370953	-0.15105	-0.25301	0.192343	2.39192	1.66178	0.0156172	0.0108138
1.32	-0.20312	-0.0477068	-0.0944017	1.24559	1.02494	-0.322009	0.678626	0.148095	0.045665	-0.412143	0.235845	-0.0297321	-0.00478765	-0.110871	0.0889259	0.0714933	-0.531986	-0.269324	-0.0337426	-0.011012	-0.0662853	0.145857	-0.120705	-0.860672	-0.173778	-0.149187	2.27374	1.64624	-0.00666416	-0.000370953	-0.162153	-0.262114	0.207335	2.39546	1.65959	0.0156172	0.0108138
1.33	-0.203272	-0.0439194	-0.0912491	1.24662	1.0243	-0.322987	0.643746	0.142435	0.0589764	-0.308268	0.225936	-0.0297321	-0.00478765	-0.108729	0.0998737	0.0902936	-0.577881	-0.26834	-0.0337426	-0.011012	-0.0654143	0.145446	-0.115646	-0.859018	-0.179149	-0.150068	2.28609	1.65934	-0.00666416	-0.000370953	-0.175063	-0.26983	0.218476	2.39461	1.65664	0.0156172	0.0108138
1.34	-0.200917	-0.0405526	-0.0875199	1.24745	1.02271	-0.323897	0.611235	0.136705	0.0709805	-0.226541	0.215156	-0.0297321	-0.00478765	-0.102869	0.110575	0.109307	-0.636269	-0.258667	-0.0337426	-0.011012	-0.0677831	0.144524	-0.1097	-0.854205	-0.185709	-0.150871	2.29564	1.67119	-0.00666416	-0.000370953	-0.189603	-0.275793	0.225592	2.38918	1.65338	0.0156172	0.0108138
1.35	-0.196429	-0.0381365	-0.083275	1.24793	1.02019	-0.324691	0.584325	0.131669	0.0804024	-0.173353	0.204789	-0.0297321	-0.00478765	-0.0932378	0.11947	0.12518	-0.706063	-0.24317	-0.0337426	-0.011012	-0.0731859	0.143678	-0.102838	-0.846316	-0.19376	-0.151627	2.30239	1.68064	-0.00666416	-0.000370953	-0.205525	-0.279701	0.228626	2.37902	1.65032	0.0156172	0.0108138
1.36	-0.190171	-0.0370544	-0.0786801	1.24795	1.01673	-0.325335	0.565855	0.128085	0.0861786	-0.153261	0.196016	-0.0297321	-0.00478765	-0.0797751	0.125059	0.135036	-0.785618	-0.224493	-0.0337426	-0.011012	-0.0811839	0.143461	-0.0949498	-0.835428	-0.203572	-0.152323	2.30622	1.68691	-0.00666416	-0.000370953	-0.222505	-0.281327	0.227649	2.36395	1.6479	0.0156172	0.0108138
1.37	-0.182583	-0.0375685	-0.073946	1.24742	1.01234	-0.325819	0.557626	0.126577	0.0876182	-0.16799	0.18968	-0.0297321	-0.00478765	-0.062504	0.126141	0.137045	-0.872887	-0.204668	-0.0337426	-0.011012	-0.0912714	0.144316	-0.0858969	-0.821549	-0.215347	-0.152888	2.30682	1.68965	-0.00666416	-0.000370953	-0.240144	-0.280523	0.222832	2.3438	1.64654	0.0156172	0.0108138
1.38	-0.174097	-0.0398001	-0.0692581	1.24632	1.00698	-0.326151	0.559963	0.127545	0.0845706	-0.215864	0.186263	-0.0297321	-0.00478765	-0.0415552	0.122021	0.130745	-0.9656	-0.184925	-0.0337426	-0.011012	-0.102985	0.146542	-0.0755732	-0.804564	-0.229169	-0.153203	2.30367	1.6889	-0.00666416	-0.000370953	-0.25798	-0.277232	0.214433	2.31831	1.64666	0.0156172	0.0108138
1.39	-0.165053	-0.0437293	-0.0647125	1.24467	1.00068	-0.326351	0.571525	0.131106	0.0775543	-0.291793	0.186053	-0.0297321	-0.00478765	-0.0171726	0.112653	0.117112	-1.06144	-0.165697	-0.0337426	-0.011012	-0.115986	0.150286	-0.0639656	-0.784215	-0.24496	-0.153115	2.29604	1.68507	-0.00666416	-0.000370953	-0.275513	-0.271483	0.202767	2.28726	1.64869	0.0156172	0.0108138
1.4	-0.155661	-0.0492081	-0.0602795	1.24257	0.993622	-0.326454	0.589463	0.137106	0.0677418	-0.387938	0.189416	-0.0297321	-0.00478765	0.0103045	0.0986942	0.0983552	-1.15817	-0.146794	-0.0337426	-0.011012	-0.130095	0.155544	-0.0511841	-0.760133	-0.262441	-0.152474	2.283	1.67874	-0.00666416	-0.000370953	-0.292248	-0.263408	0.188204	2.25043	1.65304	0.0156172	0.0108138
1.41	-0.145917	-0.0559774	-0.0558172	1.24015	0.98612	-0.326522	0.609993	0.145141	0.0567173	-0.495046	0.196991	-0.0297321	-0.00478765	0.0404918	0.0814576	0.0775099	-1.25366	-0.127667	-0.0337426	-0.011012	-0.145204	0.162137	-0.0374621	-0.731931	-0.281095	-0.151179	2.26359	1.67063	-0.00666416	-0.000370953	-0.307762	-0.253269	0.171192	2.20776	1.66003	0.0156172	0.0108138
1.42	-0.135756	-0.0635676	-0.051058	1.23749	0.978589	-0.326613	0.629248	0.154581	0.0460395	-0.604246	0.209717	-0.0297321	-0.00478765	0.0729905	0.0627945	0.0578722	-1.34597	-0.107691	-0.0337426	-0.011012	-0.161203	0.16968	-0.0231233	-0.699369	-0.300153	-0.149236	2.23708	1.66149	-0.00666416	-0.000370953	-0.321797	-0.241501	0.152287	2.15955	1.66972	0.0156172	0.0108138
1.43	-0.125215	-0.0713373	-0.0456934	1.23466	0.971378	-0.326796	0.643871	0.164566	0.0368828	-0.708082	0.228427	-0.0297321	-0.00478765	0.107465	0.0448018	0.0423793	-1.43327	-0.08642	-0.0337426	-0.011012	-0.177861	0.177554	-0.00852637	-0.662533	-0.318616	-0.146807	2.20321	1.65206	-0.00666416	-0.000370953	-0.334327	-0.228753	0.132206	2.10659	1.68169	0.0156172	0.0108138
1.44	-0.114471	-0.0785259	-0.0394597	1.23168	0.964715	-0.327118	0.651428	0.174106	0.0298778	-0.801002	0.253397	-0.0297321	-0.00478765	0.143738	0.0294173	0.0330376	-1.51397	-0.0637274	-0.0337426	-0.011012	-0.194696	0.184982	0.00604095	-0.621999	-0.335328	-0.144251	2.16257	1.64306	-0.00666416	-0.000370953	-0.3456	-0.2159	0.111861	2.05036	1.6948	0.0156172	0.0108138
1.45	-0.103919	-0.0843462	-0.0322328	1.22862	0.95877	-0.327593	0.65059	0.182238	0.0251913	-0.879491	0.284096	-0.0297321	-0.00478765	0.181798	0.0180142	0.030533	-1.58667	-0.0398464	-0.0337426	-0.011012	-0.210985	0.191134	0.0204725	-0.578918	-0.349104	-0.142124	2.11681	1.63511	-0.00666416	-0.000370953	-0.356136	-0.204	0.0923327	1.99302	1.70717	0.0156172	0.0108138
1.46	-0.0941188	-0.0881557	-0.0241233	1.22552	0.953681	-0.32819	0.641091	0.188199	0.0227576	-0.941913	0.319202	-0.0297321	-0.00478765	0.221737	0.0111311	0.0341175	-1.65026	-0.0152974	-0.0337426	-0.011012	-0.225855	0.195232	0.0349173	-0.534982	-0.358902	-0.141111	2.06865	1.62872	-0.00666416	-0.000370953	-0.366687	-0.194197	0.0747742	1.93737	1.7162	0.0156172	0.0108138
1.47	-0.0856227	-0.089539	-0.0155186	1.22246	0.949563	-0.32884	0.623508	0.191561	0.0225	-0.988143	0.356802	-0.0297321	-0.00478765	0.263635	0.00841429	0.0418238	-1.70385	0.00925104	-0.0337426	-0.011012	-0.238431	0.196681	0.0497794	-0.492243	-0.363999	-0.141884	2.02178	1.62425	-0.00666416	-0.000370953	-0.378164	-0.187561	0.0602338	1.88653	1.71907	0.0156172	0.0108138
1.48	-0.0788932	-0.0883878	-0.00703862	1.21954	0.946482	-0.329462	0.598932	0.19225	0.0244426	-1.01908	0.394676	-0.0297321	-0.00478765	0.30744	0.00880137	0.0509414	-1.74685	0.0331405	-0.0337426	-0.011012	-0.247998	0.195137	0.0656044	-0.452798	-0.364135	-0.144911	1.98034	1.62188	-0.00666416	-0.000370953	-0.391539	-0.184905	0.0494463	1.84363	1.71334	0.0156172	0.0108138
